<?xml version="1.0" encoding="utf-8"?>
<!-- Generator: Adobe Illustrator 17.0.0, SVG Export Plug-In . SVG Version: 6.00 Build 0)  -->
<!DOCTYPE svg PUBLIC "-//W3C//DTD SVG 1.1//EN" "http://www.w3.org/Graphics/SVG/1.1/DTD/svg11.dtd">
<svg version="1.1" id="Layer_1" xmlns="http://www.w3.org/2000/svg" xmlns:xlink="http://www.w3.org/1999/xlink" x="0px" y="0px"
	 width="24px" height="24px" viewBox="0 0 24 24" enable-background="new 0 0 24 24" xml:space="preserve">
<path fill="#FFFFFF" d="M6.503,20.752C6.503,22.546,5.047,24,3.252,24C1.456,24,0,22.546,0,20.752c0-1.794,1.456-3.248,3.252-3.248
	C5.047,17.505,6.503,18.958,6.503,20.752z M0,8.18v4.811C6.05,13.053,10.96,17.957,11.022,24h4.817C15.777,15.29,8.721,8.242,0,8.18
	z M0,4.812C10.58,4.858,19.152,13.406,19.183,24H24C23.97,10.769,13.245,0.046,0,0C0,0,0,4.812,0,4.812z"/>
</svg>
